<svg width="24" height="24" viewBox="0 0 24 24" fill="none" xmlns="http://www.w3.org/2000/svg">
<path d="M19.9496 5.06368L19.9492 5.0633C19.4281 4.55244 18.8136 4.14648 18.1393 3.86747L18.1387 3.8672C17.4392 3.57665 16.689 3.42793 15.9316 3.42967L15.9305 3.42967C14.8665 3.42967 13.8293 3.72098 12.9284 4.27058L12.9283 4.27059C12.7128 4.40207 12.5084 4.54625 12.315 4.70315L12 4.95863L11.685 4.70315C11.4916 4.54625 11.2872 4.40207 11.0717 4.27059L11.0716 4.27058C10.1707 3.72098 9.13355 3.42967 8.06953 3.42967C7.30245 3.42967 6.56146 3.57638 5.86133 3.8672L5.86079 3.86743C5.18401 4.14763 4.57455 4.55032 4.05064 5.06345L4.04996 5.06411C3.52959 5.57183 3.11391 6.17672 2.82647 6.84451L19.9496 5.06368ZM19.9496 5.06368C20.4695 5.57219 20.8853 6.17718 21.1737 6.8448C21.4726 7.53949 21.6248 8.27559 21.6227 9.03372V9.03514C21.6227 9.74715 21.4773 10.5 21.1799 11.2776L21.1794 11.2788C20.9329 11.9281 20.5702 12.6116 20.1018 13.3108C19.3603 14.4162 18.3316 15.5821 17.0397 16.7748C14.8937 18.7544 12.7703 20.1213 12.6888 20.1736L12.6887 20.1736L12.1342 20.5293C12.134 20.5294 12.1338 20.5295 12.1336 20.5296C12.0518 20.5815 11.9458 20.5815 11.864 20.5296C11.8638 20.5295 11.8637 20.5294 11.8635 20.5293L11.309 20.1736L11.309 20.1736L11.3011 20.1687C11.3011 20.1687 11.2987 20.1672 11.2927 20.1634L11.2691 20.1482C11.2491 20.1354 11.2215 20.1174 11.1867 20.0946C11.1171 20.0488 11.0192 19.9837 10.8971 19.9005C10.6528 19.7342 10.3121 19.4963 9.90668 19.1978C9.09509 18.6003 8.02815 17.7631 6.95797 16.7748L6.95792 16.7748M19.9496 5.06368L6.95792 16.7748M6.95792 16.7748C5.66607 15.5821 4.63738 14.4162 3.89587 13.3108C3.42805 12.6124 3.06707 11.9284 2.8177 11.2774C2.52035 10.4998 2.375 9.74708 2.375 9.03514C2.375 8.27596 2.52747 7.5393 2.82645 6.84454L6.95792 16.7748Z" fill="#FEFEFE" stroke="#28DAA5"/>
</svg>
