<svg width="100" height="16" viewBox="0 0 100 16" fill="none" xmlns="http://www.w3.org/2000/svg">
<path d="M1.9422 0C1.36949 0 0.975756 0.107383 0.76099 0.340046C0.546225 0.572708 0.438843 1.00224 0.438843 1.64653V3.29306C0.438843 3.84787 0.546225 4.24161 0.76099 4.47427C0.975756 4.70693 1.36949 4.81432 1.9422 4.81432H5.37844V14.5861C5.39634 15.0694 5.52162 15.4094 5.75428 15.6421C5.98694 15.8747 6.38068 15.9821 6.93549 15.9642H8.83258C9.38739 15.9463 9.78113 15.8389 9.99589 15.6242C10.2286 15.4094 10.3359 15.0694 10.318 14.5861V4.81432H13.4679C14.0227 4.81432 14.4165 4.70693 14.6491 4.47427C14.8639 4.24161 14.9713 3.84787 14.9713 3.29306V1.50336C14.9713 0.966443 14.8639 0.572708 14.6491 0.340046C14.4165 0.107383 14.0227 0 13.4679 0H1.9422Z" fill="#FEFEFE"/>
<path d="M21.9084 9.64653V6.33557C21.9084 5.5123 22.0515 4.97539 22.32 4.67114C22.5885 4.38479 23.1254 4.24161 23.8949 4.24161H24.9867C25.7562 4.24161 26.2753 4.38479 26.5437 4.67114C26.8301 4.97539 26.9553 5.5123 26.9553 6.33557V9.64653C26.9553 10.4519 26.8301 10.9888 26.5437 11.2752C26.2753 11.5794 25.7562 11.7226 24.9867 11.7226H23.8949C23.1254 11.7226 22.5885 11.5794 22.32 11.2752C22.0515 10.9888 21.9084 10.4519 21.9084 9.64653ZM23.6623 15.9463H25.2193C27.4923 15.9284 29.1567 15.481 30.1768 14.6398C31.197 13.7808 31.716 12.2237 31.716 9.93289V6.08501C31.716 3.77629 31.197 2.20134 30.1768 1.32439C29.1567 0.447428 27.4923 0 25.2193 0H23.6623C21.3715 0 19.7249 0.447428 18.6869 1.32439C17.6668 2.20134 17.1656 3.77629 17.1656 6.08501V9.93289C17.1656 12.2237 17.6668 13.7808 18.6869 14.6398C19.7249 15.481 21.3715 15.9284 23.6623 15.9463Z" fill="#FEFEFE"/>
<path d="M43.6642 9.07382C43.6642 9.87919 43.539 10.4161 43.2884 10.7025C43.0378 10.9709 42.5904 11.132 41.9461 11.1678H40.3712C39.7269 11.132 39.2795 10.9709 39.0289 10.7025C38.7604 10.4161 38.6352 9.87919 38.6352 9.07382V1.52125C38.6531 0.966443 38.5457 0.590604 38.313 0.375839C38.0803 0.143176 37.7045 0.0357941 37.1497 0.0178972H35.5748C34.9305 0.0178972 34.5009 0.125279 34.2683 0.357941C34.0177 0.572707 33.8924 0.966443 33.8924 1.52125V9.93289C33.8924 12.0984 34.4114 13.6555 35.4316 14.5682C36.4696 15.481 38.134 15.9463 40.3891 15.9463H41.9282C44.1833 15.9463 45.8298 15.481 46.8678 14.5682C47.9058 13.6555 48.4249 12.0984 48.4249 9.93289V1.52125C48.407 0.966443 48.2817 0.572707 48.049 0.357941C47.8164 0.125279 47.3689 0.0178972 46.7246 0.0178972H45.1497C44.6128 0.0357941 44.219 0.143176 43.9864 0.375839C43.7716 0.590604 43.6642 0.966443 43.6642 1.52125V9.07382Z" fill="#FEFEFE"/>
<path d="M55.6841 10.8993H57.8317L60.0868 14.5503C60.4268 15.0515 60.7132 15.4094 60.9458 15.6421C61.1964 15.8747 61.5901 15.9821 62.127 15.9642H63.6304C64.1852 15.9463 64.5611 15.8389 64.7937 15.6242C65.0264 15.4094 65.1338 15.0694 65.1159 14.5861C65.1159 14.1924 64.9727 13.7987 64.7042 13.4228L62.6282 10.0761C62.9682 9.91499 63.2546 9.71812 63.5051 9.50336C64.5789 8.57271 65.1159 7.21253 65.1159 5.45861C65.1159 3.6868 64.5789 2.34452 63.5051 1.41387C62.4313 0.483222 60.6058 0.0178972 58.0107 0.0178972H52.391C51.7646 0.0178972 51.2993 0.178972 51.013 0.465325C50.7266 0.769576 50.5834 1.1991 50.5834 1.77181V14.5861C50.5834 15.0694 50.7087 15.4094 50.9593 15.6421C51.1919 15.8747 51.5857 15.9821 52.1405 15.9642H53.8407C54.3955 15.9463 54.7713 15.8389 55.004 15.6242C55.2367 15.4094 55.344 15.0694 55.3262 14.5861V11.2394C55.3262 11.1678 55.3619 11.0783 55.4156 11.0067C55.4693 10.9351 55.5588 10.8993 55.6841 10.8993ZM60.0868 5.45861C60.0868 5.90604 59.9257 6.21029 59.6036 6.38926C59.2993 6.58613 58.7803 6.67561 58.0823 6.67561H55.6841C55.5588 6.67561 55.4693 6.62192 55.4156 6.55034C55.3619 6.47875 55.3262 6.40716 55.3262 6.31767V4.61745C55.3262 4.54586 55.3619 4.45638 55.4156 4.38479C55.4693 4.2953 55.5588 4.25951 55.6841 4.25951H58.0823C58.7803 4.25951 59.2993 4.34899 59.6036 4.51007C59.9257 4.68904 60.0868 5.01118 60.0868 5.45861Z" fill="#FEFEFE"/>
<path d="M72.1245 4.97539C72.1066 4.42058 71.9814 4.02685 71.7487 3.79418C71.516 3.56152 71.0686 3.45414 70.4243 3.47204H68.8673C68.3125 3.48993 67.9187 3.59731 67.7039 3.81208C67.4713 4.02685 67.3639 4.42058 67.3818 4.97539V14.604C67.3818 15.0872 67.5071 15.4273 67.7576 15.66C67.9903 15.8926 68.384 16 68.921 15.9821H70.6391C71.1939 15.9642 71.5697 15.8568 71.8024 15.6421C72.035 15.4273 72.1424 15.0872 72.1245 14.604V4.97539ZM72.1245 1.27069C72.1066 0.80537 71.9814 0.483222 71.7487 0.30425C71.516 0.125279 71.0686 0.0357944 70.4243 0.0357944H68.8673C68.3125 0.0536913 67.9187 0.143177 67.7039 0.322148C67.4713 0.483222 67.3639 0.80537 67.3818 1.27069V1.32439C67.3818 1.78971 67.5071 2.12975 67.7576 2.30873C67.9903 2.4877 68.384 2.57718 68.921 2.55928H70.6391C71.1939 2.54139 71.5697 2.4519 71.8024 2.29083C72.035 2.12975 72.1424 1.78971 72.1245 1.32439V1.27069Z" fill="#FEFEFE"/>
<path d="M79.259 7.48098V7.3915C79.259 7.15884 79.3306 6.97987 79.4738 6.89038C79.617 6.8009 79.8496 6.7472 80.1718 6.7472H85.4335C85.9704 6.7651 86.3284 6.65772 86.5432 6.42506C86.7579 6.21029 86.8653 5.81655 86.9011 5.26174V5.13647C86.9011 4.51007 86.7937 4.09843 86.5789 3.86577C86.3463 3.63311 85.9704 3.52573 85.4335 3.52573H78.1315C76.9145 3.54363 75.9839 3.82998 75.3396 4.36689C74.6953 4.9038 74.391 5.85235 74.391 7.21253V7.74944C74.391 9.10962 74.6953 10.0582 75.3396 10.5951C75.9839 11.132 76.9145 11.4004 78.1315 11.4004H81.1024C81.4246 11.4004 81.6572 11.4541 81.8004 11.5436C81.9436 11.6331 82.0152 11.7942 82.0152 12.0268V12.1342C82.0152 12.3669 81.9436 12.528 81.8004 12.6353C81.6572 12.7248 81.4246 12.7606 81.1024 12.7606H75.8586C75.3217 12.7606 74.9458 12.868 74.7311 13.0828C74.5163 13.3154 74.4089 13.7092 74.391 14.2461V14.3893C74.3731 15.0157 74.4805 15.4273 74.7132 15.66C74.9279 15.8926 75.3217 16 75.8586 16H83.1427C84.3597 15.9821 85.2904 15.6958 85.9347 15.1588C86.5789 14.6219 86.9011 13.6734 86.9011 12.3132V11.7763C86.9011 10.4161 86.5789 9.44967 85.9347 8.93065C85.2904 8.39374 84.3597 8.12528 83.1427 8.12528H80.1718C79.8496 8.12528 79.617 8.07159 79.4738 7.9821C79.3306 7.89262 79.259 7.71365 79.259 7.48098Z" fill="#FEFEFE"/>
<path d="M98.0552 7.67785C98.61 7.67785 99.0037 7.57047 99.2185 7.33781C99.4333 7.10515 99.5585 6.71141 99.5585 6.1566V4.97539C99.5585 4.42058 99.4333 4.02685 99.2185 3.79418C99.0037 3.56152 98.61 3.45414 98.0552 3.45414H96.6234V2.52349C96.6413 2.04027 96.5339 1.70022 96.3013 1.48546C96.0865 1.27069 95.6928 1.16331 95.138 1.14541H93.4377C92.8829 1.12752 92.4892 1.2349 92.2565 1.46756C92.0239 1.70022 91.8986 2.04027 91.8807 2.52349V3.45414H90.6458C90.0731 3.45414 89.6793 3.56152 89.4646 3.79418C89.2498 4.02685 89.1424 4.42058 89.1424 4.97539V6.01342C89.1424 6.65772 89.2498 7.10515 89.4646 7.33781C89.6793 7.57047 90.0731 7.67785 90.6458 7.67785H91.8807V10.1477C91.8807 12.2953 92.3818 13.7808 93.4198 14.6398C94.44 15.481 95.9075 15.9284 97.8225 15.9463H98.1268C98.61 15.9642 98.9679 15.8568 99.1827 15.6242C99.3975 15.3915 99.5228 15.0157 99.5585 14.4609V13.2796C99.5764 12.7248 99.4691 12.3311 99.2364 12.0984C99.0037 11.8479 98.6279 11.7226 98.1268 11.7226H98.0552C97.5541 11.7226 97.1961 11.5794 96.9814 11.311C96.7487 11.0425 96.6234 10.613 96.6234 10.0582V7.67785H98.0552Z" fill="#FEFEFE"/>
</svg>
